<svg width="58" height="59" viewBox="0 0 58 59" fill="none" xmlns="http://www.w3.org/2000/svg">
<rect y="0.475098" width="58" height="58" rx="14" fill="#E8E8E8"/>
<g clip-path="url(#clip0_480_8088)">
<path d="M38.5934 30.6995C38.3144 30.4847 37.9895 30.3373 37.6442 30.2685C37.2988 30.1997 36.9422 30.2115 36.6022 30.3029L32.6797 31.2048C32.7709 30.8193 32.7738 30.4181 32.6879 30.0314C32.6021 29.6446 32.4298 29.2823 32.1841 28.9716C31.9383 28.6609 31.6254 28.4098 31.2688 28.2373C30.9122 28.0647 30.5212 27.9751 30.125 27.9751H25.4319C25.0377 27.9741 24.6473 28.0512 24.2832 28.202C23.919 28.3528 23.5884 28.5742 23.3103 28.8535L21.1897 30.9751H18.5C18.1022 30.9751 17.7206 31.1331 17.4393 31.4144C17.158 31.6957 17 32.0773 17 32.4751V36.2251C17 36.6229 17.158 37.0045 17.4393 37.2858C17.7206 37.5671 18.1022 37.7251 18.5 37.7251H28.25C28.3113 37.7251 28.3724 37.7176 28.4319 37.7026L34.4319 36.2026C34.4701 36.1935 34.5075 36.1809 34.5434 36.1651L38.1875 34.6145L38.2288 34.5957C38.579 34.4207 38.8789 34.1594 39.1002 33.8365C39.3215 33.5136 39.457 33.1396 39.4939 32.7498C39.5307 32.36 39.4678 31.9673 39.3109 31.6086C39.154 31.2499 38.9084 30.937 38.5972 30.6995H38.5934ZM18.5 32.4751H20.75V36.2251H18.5V32.4751ZM37.5716 33.2448L34.0091 34.7617L28.1562 36.2251H22.25V32.0354L24.3716 29.9148C24.5103 29.7749 24.6756 29.664 24.8576 29.5885C25.0396 29.513 25.2348 29.4745 25.4319 29.4751H30.125C30.4234 29.4751 30.7095 29.5936 30.9205 29.8046C31.1315 30.0156 31.25 30.3017 31.25 30.6001C31.25 30.8985 31.1315 31.1846 30.9205 31.3956C30.7095 31.6066 30.4234 31.7251 30.125 31.7251H27.5C27.3011 31.7251 27.1103 31.8041 26.9697 31.9448C26.829 32.0854 26.75 32.2762 26.75 32.4751C26.75 32.674 26.829 32.8648 26.9697 33.0054C27.1103 33.1461 27.3011 33.2251 27.5 33.2251H30.5C30.5565 33.2249 30.6127 33.2187 30.6678 33.2063L36.9491 31.7617L36.9781 31.7542C37.1699 31.7009 37.3745 31.7205 37.5527 31.8091C37.7309 31.8977 37.87 32.049 37.9433 32.234C38.0167 32.419 38.0189 32.6246 37.9498 32.8112C37.8806 32.9978 37.7449 33.1522 37.5687 33.2448H37.5716ZM32.375 26.4751C32.5603 26.4753 32.7453 26.4603 32.9281 26.4301C33.1338 27.0409 33.51 27.5801 34.0124 27.9839C34.5147 28.3876 35.1222 28.6391 35.763 28.7086C36.4037 28.778 37.051 28.6626 37.6282 28.3759C38.2054 28.0891 38.6884 27.6431 39.0202 27.0906C39.352 26.538 39.5186 25.902 39.5004 25.2578C39.4821 24.6135 39.2798 23.9879 38.9173 23.455C38.5548 22.9221 38.0473 22.5042 37.4548 22.2505C36.8623 21.9969 36.2096 21.9183 35.5737 22.0238C35.3757 21.4353 35.0192 20.9128 34.5434 20.5139C34.0676 20.1149 33.4909 19.855 32.8769 19.7626C32.2629 19.6703 31.6353 19.7491 31.0631 19.9905C30.491 20.2318 29.9966 20.6263 29.6342 21.1306C29.2719 21.6348 29.0556 22.2292 29.0093 22.8485C28.963 23.4677 29.0885 24.0876 29.3718 24.6402C29.6552 25.1927 30.0854 25.6563 30.6153 25.9801C31.1452 26.3038 31.7541 26.4751 32.375 26.4751ZM38 25.3501C38 25.7209 37.89 26.0835 37.684 26.3918C37.478 26.7001 37.1851 26.9405 36.8425 27.0824C36.4999 27.2243 36.1229 27.2614 35.7592 27.1891C35.3955 27.1167 35.0614 26.9381 34.7992 26.6759C34.537 26.4137 34.3584 26.0796 34.286 25.7159C34.2137 25.3522 34.2508 24.9752 34.3927 24.6326C34.5346 24.29 34.775 23.9971 35.0833 23.7911C35.3916 23.5851 35.7542 23.4751 36.125 23.4751C36.6223 23.4751 37.0992 23.6726 37.4508 24.0243C37.8025 24.3759 38 24.8528 38 25.3501ZM32.375 21.2251C32.784 21.2253 33.1818 21.3593 33.5076 21.6065C33.8334 21.8538 34.0695 22.2009 34.1797 22.5948C33.7956 22.8651 33.4721 23.2125 33.2299 23.615C32.9878 24.0174 32.8323 24.466 32.7734 24.932C32.6425 24.9602 32.509 24.9747 32.375 24.9751C31.8777 24.9751 31.4008 24.7776 31.0492 24.4259C30.6975 24.0743 30.5 23.5974 30.5 23.1001C30.5 22.6028 30.6975 22.1259 31.0492 21.7743C31.4008 21.4226 31.8777 21.2251 32.375 21.2251Z" fill="#AE9A9A"/>
</g>
<defs>
<clipPath id="clip0_480_8088">
<rect width="24" height="24" fill="white" transform="translate(17 17.4751)"/>
</clipPath>
</defs>
</svg>
