<svg width="12" height="13" viewBox="0 0 12 13" fill="none" xmlns="http://www.w3.org/2000/svg">
<path d="M9.5 2.41309H0.5C0.367392 2.41309 0.240215 2.46576 0.146447 2.55953C0.0526785 2.6533 0 2.78048 0 2.91309V11.9131C0 12.0457 0.0526785 12.1729 0.146447 12.2666C0.240215 12.3604 0.367392 12.4131 0.5 12.4131H9.5C9.63261 12.4131 9.75979 12.3604 9.85355 12.2666C9.94732 12.1729 10 12.0457 10 11.9131V2.91309C10 2.78048 9.94732 2.6533 9.85355 2.55953C9.75979 2.46576 9.63261 2.41309 9.5 2.41309ZM9 11.4131H1V3.41309H9V11.4131ZM12 0.913086V9.91309C12 10.0457 11.9473 10.1729 11.8536 10.2666C11.7598 10.3604 11.6326 10.4131 11.5 10.4131C11.3674 10.4131 11.2402 10.3604 11.1464 10.2666C11.0527 10.1729 11 10.0457 11 9.91309V1.41309H2.5C2.36739 1.41309 2.24021 1.36041 2.14645 1.26664C2.05268 1.17287 2 1.04569 2 0.913086C2 0.780478 2.05268 0.653301 2.14645 0.559533C2.24021 0.465764 2.36739 0.413086 2.5 0.413086H11.5C11.6326 0.413086 11.7598 0.465764 11.8536 0.559533C11.9473 0.653301 12 0.780478 12 0.913086Z" fill="#EB5241"/>
</svg>
