<svg width="32" height="33" viewBox="0 0 32 33" fill="none" xmlns="http://www.w3.org/2000/svg">
<g id="Frame 39">
<g id="Group 1">
<path id="Rectangle 6" d="M1.95996 10.478C1.95996 9.6496 2.63153 8.97803 3.45996 8.97803H28.5398C29.3682 8.97803 30.0398 9.6496 30.0398 10.478V19.5507V22.4719C30.0398 23.3004 29.3682 23.9719 28.5398 23.9719H3.45996C2.63153 23.9719 1.95996 23.3004 1.95996 22.4719V19.5507V10.478Z" stroke="#AE9A9A"/>
<g id="01.01.2023">
<path d="M4.84106 22.268C4.68573 22.268 4.56779 22.2067 4.48725 22.0841C4.40786 21.9615 4.36816 21.7804 4.36816 21.541C4.36816 21.3015 4.40786 21.1204 4.48725 20.9979C4.56779 20.8753 4.68573 20.814 4.84106 20.814C4.99639 20.814 5.11376 20.8753 5.19315 20.9979C5.27369 21.1204 5.31396 21.3015 5.31396 21.541C5.31396 21.7804 5.27369 21.9615 5.19315 22.0841C5.11376 22.2067 4.99639 22.268 4.84106 22.268ZM4.84106 21.9814C4.88363 21.9814 4.91815 21.9672 4.94462 21.9387C4.97108 21.9087 4.99007 21.8617 5.00157 21.7975C5.01423 21.732 5.02056 21.6464 5.02056 21.541C5.02056 21.4355 5.01423 21.3507 5.00157 21.2865C4.99007 21.2209 4.97108 21.1739 4.94462 21.1454C4.91815 21.1155 4.88363 21.1005 4.84106 21.1005C4.79964 21.1005 4.76512 21.1155 4.73751 21.1454C4.71104 21.1739 4.69148 21.2209 4.67883 21.2865C4.66732 21.3507 4.66157 21.4355 4.66157 21.541C4.66157 21.6464 4.66732 21.732 4.67883 21.7975C4.69148 21.8617 4.71104 21.9087 4.73751 21.9387C4.76512 21.9672 4.79964 21.9814 4.84106 21.9814Z" fill="#AE9A9A"/>
<path d="M5.72568 22.2466V21.434C5.72568 21.397 5.72568 21.3592 5.72568 21.3207C5.72683 21.2808 5.72741 21.2402 5.72741 21.1988C5.68944 21.2416 5.64744 21.2794 5.60142 21.3122C5.55539 21.3435 5.50707 21.3649 5.45644 21.3763L5.42883 21.0727C5.45874 21.0698 5.49038 21.0606 5.52375 21.0449C5.55827 21.0292 5.59221 21.01 5.62558 20.9872C5.65895 20.9644 5.68886 20.9401 5.71533 20.9145C5.74179 20.8874 5.76193 20.861 5.77573 20.8353H6.01218V22.2466H5.72568Z" fill="#AE9A9A"/>
<path d="M6.38958 21.8788C6.44365 21.8788 6.48565 21.8959 6.51557 21.9301C6.54663 21.9643 6.56217 22.0121 6.56217 22.0734C6.56217 22.1332 6.54663 22.1803 6.51557 22.2145C6.48565 22.2487 6.44365 22.2658 6.38958 22.2658C6.33665 22.2658 6.29465 22.2487 6.26359 22.2145C6.23252 22.1803 6.21699 22.1332 6.21699 22.0734C6.21699 22.0121 6.23252 21.9643 6.26359 21.9301C6.29465 21.8959 6.33665 21.8788 6.38958 21.8788Z" fill="#AE9A9A"/>
<path d="M7.17879 22.268C7.02346 22.268 6.90552 22.2067 6.82498 22.0841C6.74558 21.9615 6.70589 21.7804 6.70589 21.541C6.70589 21.3015 6.74558 21.1204 6.82498 20.9979C6.90552 20.8753 7.02346 20.814 7.17879 20.814C7.33412 20.814 7.45148 20.8753 7.53087 20.9979C7.61141 21.1204 7.65168 21.3015 7.65168 21.541C7.65168 21.7804 7.61141 21.9615 7.53087 22.0841C7.45148 22.2067 7.33412 22.268 7.17879 22.268ZM7.17879 21.9814C7.22136 21.9814 7.25588 21.9672 7.28234 21.9387C7.30881 21.9087 7.32779 21.8617 7.3393 21.7975C7.35195 21.732 7.35828 21.6464 7.35828 21.541C7.35828 21.4355 7.35195 21.3507 7.3393 21.2865C7.32779 21.2209 7.30881 21.1739 7.28234 21.1454C7.25588 21.1155 7.22136 21.1005 7.17879 21.1005C7.13737 21.1005 7.10285 21.1155 7.07523 21.1454C7.04877 21.1739 7.02921 21.2209 7.01655 21.2865C7.00505 21.3507 6.99929 21.4355 6.99929 21.541C6.99929 21.6464 7.00505 21.732 7.01655 21.7975C7.02921 21.8617 7.04877 21.9087 7.07523 21.9387C7.10285 21.9672 7.13737 21.9814 7.17879 21.9814Z" fill="#AE9A9A"/>
<path d="M8.06341 22.2466V21.434C8.06341 21.397 8.06341 21.3592 8.06341 21.3207C8.06456 21.2808 8.06513 21.2402 8.06513 21.1988C8.02716 21.2416 7.98517 21.2794 7.93914 21.3122C7.89312 21.3435 7.84479 21.3649 7.79417 21.3763L7.76655 21.0727C7.79647 21.0698 7.82811 21.0606 7.86148 21.0449C7.89599 21.0292 7.92994 21.01 7.9633 20.9872C7.99667 20.9644 8.02659 20.9401 8.05305 20.9145C8.07952 20.8874 8.09965 20.861 8.11346 20.8353H8.34991V22.2466H8.06341Z" fill="#AE9A9A"/>
<path d="M8.7273 21.8788C8.78138 21.8788 8.82338 21.8959 8.85329 21.9301C8.88436 21.9643 8.89989 22.0121 8.89989 22.0734C8.89989 22.1332 8.88436 22.1803 8.85329 22.2145C8.82338 22.2487 8.78138 22.2658 8.7273 22.2658C8.67437 22.2658 8.63238 22.2487 8.60131 22.2145C8.57024 22.1803 8.55471 22.1332 8.55471 22.0734C8.55471 22.0121 8.57024 21.9643 8.60131 21.9301C8.63238 21.8959 8.67437 21.8788 8.7273 21.8788Z" fill="#AE9A9A"/>
<path d="M9.08118 22.2466V22.0114C9.17898 21.9358 9.2624 21.8653 9.33144 21.7997C9.40047 21.7341 9.45628 21.6721 9.49885 21.6137C9.54257 21.5552 9.57479 21.4996 9.5955 21.4469C9.61621 21.3941 9.62656 21.3428 9.62656 21.2929C9.62656 21.2388 9.61333 21.1939 9.58687 21.1582C9.56156 21.1212 9.52359 21.1026 9.47296 21.1026C9.41888 21.1026 9.37688 21.1276 9.34697 21.1775C9.31705 21.2259 9.30094 21.2972 9.29864 21.3913L9.04494 21.2951C9.04724 21.1896 9.06737 21.1012 9.10534 21.0299C9.14446 20.9587 9.19739 20.9052 9.26412 20.8696C9.33086 20.8325 9.4068 20.814 9.49194 20.814C9.56673 20.814 9.63117 20.8275 9.68525 20.8546C9.74047 20.8802 9.78535 20.9152 9.81987 20.9594C9.85438 21.0021 9.8797 21.0506 9.89581 21.1048C9.91307 21.1575 9.92169 21.2117 9.92169 21.2673C9.92169 21.3585 9.90271 21.444 9.86474 21.5239C9.82677 21.6023 9.77154 21.6785 9.69905 21.7526C9.62772 21.8253 9.54084 21.8988 9.43844 21.9729V21.975C9.458 21.9736 9.48101 21.9722 9.50748 21.9707C9.53394 21.9693 9.56156 21.9686 9.59032 21.9686C9.61909 21.9672 9.64497 21.9665 9.66799 21.9665H9.9355V22.2466H9.08118Z" fill="#AE9A9A"/>
<path d="M10.5615 22.268C10.4062 22.268 10.2882 22.2067 10.2077 22.0841C10.1283 21.9615 10.0886 21.7804 10.0886 21.541C10.0886 21.3015 10.1283 21.1204 10.2077 20.9979C10.2882 20.8753 10.4062 20.814 10.5615 20.814C10.7168 20.814 10.8342 20.8753 10.9136 20.9979C10.9941 21.1204 11.0344 21.3015 11.0344 21.541C11.0344 21.7804 10.9941 21.9615 10.9136 22.0841C10.8342 22.2067 10.7168 22.268 10.5615 22.268ZM10.5615 21.9814C10.6041 21.9814 10.6386 21.9672 10.665 21.9387C10.6915 21.9087 10.7105 21.8617 10.722 21.7975C10.7347 21.732 10.741 21.6464 10.741 21.541C10.741 21.4355 10.7347 21.3507 10.722 21.2865C10.7105 21.2209 10.6915 21.1739 10.665 21.1454C10.6386 21.1155 10.6041 21.1005 10.5615 21.1005C10.5201 21.1005 10.4856 21.1155 10.4579 21.1454C10.4315 21.1739 10.4119 21.2209 10.3993 21.2865C10.3878 21.3507 10.382 21.4355 10.382 21.541C10.382 21.6464 10.3878 21.732 10.3993 21.7975C10.4119 21.8617 10.4315 21.9087 10.4579 21.9387C10.4856 21.9672 10.5201 21.9814 10.5615 21.9814Z" fill="#AE9A9A"/>
<path d="M11.22 22.2466V22.0114C11.3178 21.9358 11.4012 21.8653 11.4703 21.7997C11.5393 21.7341 11.5951 21.6721 11.6377 21.6137C11.6814 21.5552 11.7136 21.4996 11.7343 21.4469C11.7551 21.3941 11.7654 21.3428 11.7654 21.2929C11.7654 21.2388 11.7522 21.1939 11.7257 21.1582C11.7004 21.1212 11.6624 21.1026 11.6118 21.1026C11.5577 21.1026 11.5157 21.1276 11.4858 21.1775C11.4559 21.2259 11.4398 21.2972 11.4375 21.3913L11.1838 21.2951C11.1861 21.1896 11.2062 21.1012 11.2442 21.0299C11.2833 20.9587 11.3362 20.9052 11.403 20.8696C11.4697 20.8325 11.5456 20.814 11.6308 20.814C11.7056 20.814 11.77 20.8275 11.8241 20.8546C11.8793 20.8802 11.9242 20.9152 11.9587 20.9594C11.9932 21.0021 12.0185 21.0506 12.0346 21.1048C12.0519 21.1575 12.0605 21.2117 12.0605 21.2673C12.0605 21.3585 12.0416 21.444 12.0036 21.5239C11.9656 21.6023 11.9104 21.6785 11.8379 21.7526C11.7666 21.8253 11.6797 21.8988 11.5773 21.9729V21.975C11.5968 21.9736 11.6199 21.9722 11.6463 21.9707C11.6728 21.9693 11.7004 21.9686 11.7292 21.9686C11.7579 21.9672 11.7838 21.9665 11.8068 21.9665H12.0743V22.2466H11.22Z" fill="#AE9A9A"/>
<path d="M12.6641 22.268C12.5421 22.268 12.4403 22.2387 12.3586 22.1803C12.2781 22.1204 12.2223 22.0335 12.1912 21.9194L12.4639 21.774C12.4696 21.8253 12.48 21.8667 12.495 21.898C12.5111 21.928 12.5323 21.9501 12.5588 21.9643C12.5853 21.9772 12.6163 21.9836 12.652 21.9836C12.6842 21.9836 12.7113 21.9772 12.7331 21.9643C12.7561 21.9501 12.774 21.9301 12.7866 21.9045C12.7993 21.8788 12.8056 21.8482 12.8056 21.8125C12.8056 21.7755 12.7993 21.7455 12.7866 21.7227C12.7751 21.6999 12.7579 21.6835 12.7349 21.6735C12.713 21.6636 12.686 21.6586 12.6537 21.6586C12.6388 21.6586 12.625 21.6593 12.6123 21.6607C12.5997 21.6607 12.5853 21.6621 12.5692 21.665V21.4255C12.5784 21.4269 12.5876 21.4283 12.5968 21.4298C12.606 21.4298 12.6169 21.4298 12.6296 21.4298C12.6837 21.4298 12.7222 21.4162 12.7452 21.3891C12.7694 21.3606 12.7815 21.3164 12.7815 21.2566C12.7815 21.2053 12.7694 21.1661 12.7452 21.139C12.7222 21.1119 12.6894 21.0983 12.6468 21.0983C12.602 21.0983 12.5651 21.1133 12.5364 21.1433C12.5076 21.1718 12.4892 21.2209 12.4811 21.2908L12.2205 21.1796C12.2332 21.1012 12.2602 21.0349 12.3016 20.9807C12.3431 20.9266 12.3948 20.8852 12.457 20.8567C12.5203 20.8282 12.5899 20.814 12.6658 20.814C12.7533 20.814 12.8269 20.8296 12.8867 20.861C12.9466 20.8924 12.992 20.9373 13.0231 20.9957C13.0541 21.0542 13.0697 21.1226 13.0697 21.201C13.0697 21.2623 13.0616 21.3136 13.0455 21.3549C13.0306 21.3963 13.011 21.4298 12.9868 21.4554C12.9638 21.4811 12.9402 21.5003 12.9161 21.5132C12.8919 21.5246 12.8718 21.5317 12.8557 21.5345V21.541C12.8764 21.541 12.9 21.5459 12.9264 21.5559C12.9529 21.5659 12.9788 21.5823 13.0041 21.6051C13.0294 21.6265 13.0501 21.6564 13.0662 21.6949C13.0835 21.7334 13.0921 21.7812 13.0921 21.8382C13.0921 21.9266 13.0731 22.0028 13.0352 22.067C12.9983 22.1311 12.9477 22.181 12.8833 22.2166C12.8188 22.2509 12.7458 22.268 12.6641 22.268Z" fill="#AE9A9A"/>
</g>
<g id="H 1234 aa">
<path d="M7.38072 12.8904V16.2264H6.51132V12.8904H7.38072ZM5.23756 12.8904V16.2264H4.36816V12.8904H5.23756ZM6.97635 14.2096V14.8819H4.79275V14.2096H6.97635Z" fill="#AE9A9A"/>
<path d="M10.1229 16.2264V14.3057C10.1229 14.2181 10.1229 14.1288 10.1229 14.0378C10.1263 13.9434 10.1279 13.8474 10.1279 13.7497C10.0167 13.8508 9.89374 13.9401 9.75895 14.0176C9.62416 14.0917 9.48263 14.1423 9.33436 14.1692L9.25349 13.4515C9.3411 13.4447 9.43377 13.4228 9.53149 13.3857C9.63259 13.3487 9.73199 13.3032 9.82972 13.2493C9.92744 13.1954 10.0151 13.1381 10.0926 13.0774C10.1701 13.0134 10.229 12.951 10.2695 12.8904H10.962V16.2264H10.1229Z" fill="#AE9A9A"/>
<path d="M11.6376 16.2264V15.6704C11.924 15.4918 12.1683 15.325 12.3705 15.17C12.5727 15.015 12.7361 14.8684 12.8608 14.7303C12.9888 14.5921 13.0832 14.4607 13.1438 14.336C13.2045 14.2113 13.2348 14.09 13.2348 13.9721C13.2348 13.844 13.1961 13.7379 13.1186 13.6536C13.0444 13.566 12.9332 13.5222 12.785 13.5222C12.6266 13.5222 12.5036 13.5812 12.416 13.6991C12.3284 13.8137 12.2812 13.9822 12.2745 14.2046L11.5314 13.9771C11.5382 13.7278 11.5971 13.5188 11.7083 13.3504C11.8229 13.1819 11.9779 13.0555 12.1734 12.9713C12.3688 12.8837 12.5912 12.8398 12.8406 12.8398C13.0596 12.8398 13.2483 12.8719 13.4067 12.9359C13.5684 12.9965 13.6999 13.0791 13.8009 13.1836C13.902 13.2846 13.9762 13.3992 14.0234 13.5273C14.0739 13.652 14.0992 13.78 14.0992 13.9114C14.0992 14.1271 14.0436 14.3293 13.9324 14.518C13.8212 14.7033 13.6594 14.8836 13.4471 15.0588C13.2382 15.2307 12.9838 15.4042 12.6839 15.5794V15.5845C12.7412 15.5811 12.8086 15.5778 12.8861 15.5744C12.9636 15.571 13.0444 15.5693 13.1287 15.5693C13.2129 15.566 13.2887 15.5643 13.3561 15.5643H14.1396V16.2264H11.6376Z" fill="#AE9A9A"/>
<path d="M15.8668 16.277C15.5096 16.277 15.2114 16.2079 14.9721 16.0697C14.7362 15.9282 14.5728 15.7227 14.4818 15.4531L15.2805 15.1094C15.2973 15.2307 15.3276 15.3284 15.3714 15.4025C15.4186 15.4733 15.481 15.5255 15.5585 15.5592C15.636 15.5896 15.7269 15.6047 15.8314 15.6047C15.9258 15.6047 16.0049 15.5896 16.069 15.5592C16.1364 15.5255 16.1886 15.4784 16.2257 15.4177C16.2627 15.357 16.2813 15.2846 16.2813 15.2003C16.2813 15.1127 16.2627 15.042 16.2257 14.9881C16.192 14.9341 16.1414 14.8954 16.074 14.8718C16.01 14.8482 15.9308 14.8364 15.8365 14.8364C15.7927 14.8364 15.7522 14.8381 15.7151 14.8415C15.6781 14.8415 15.636 14.8448 15.5888 14.8516V14.2855C15.6157 14.2888 15.6427 14.2922 15.6697 14.2956C15.6966 14.2956 15.7286 14.2956 15.7657 14.2956C15.9241 14.2956 16.037 14.2636 16.1044 14.1995C16.1751 14.1321 16.2105 14.0277 16.2105 13.8861C16.2105 13.7648 16.1751 13.6722 16.1044 13.6081C16.037 13.5441 15.9409 13.5121 15.8162 13.5121C15.6848 13.5121 15.577 13.5475 15.4927 13.6183C15.4085 13.6856 15.3546 13.8019 15.331 13.967L14.5677 13.7042C14.6048 13.5188 14.684 13.3622 14.8053 13.2341C14.9266 13.1061 15.0783 13.0083 15.2602 12.9409C15.4456 12.8735 15.6494 12.8398 15.8718 12.8398C16.1279 12.8398 16.3436 12.8769 16.5188 12.951C16.6941 13.0252 16.8272 13.1313 16.9181 13.2695C17.0091 13.4076 17.0546 13.5694 17.0546 13.7547C17.0546 13.8996 17.031 14.0209 16.9839 14.1187C16.9401 14.2164 16.8828 14.2956 16.812 14.3562C16.7446 14.4169 16.6755 14.4624 16.6048 14.4927C16.534 14.5197 16.475 14.5365 16.4278 14.5432V14.5584C16.4885 14.5584 16.5576 14.5702 16.6351 14.5938C16.7126 14.6174 16.7884 14.6561 16.8625 14.7101C16.9367 14.7606 16.9973 14.8314 17.0445 14.9223C17.0951 15.0133 17.1203 15.1262 17.1203 15.261C17.1203 15.4699 17.0647 15.6502 16.9535 15.8018C16.8457 15.9535 16.6974 16.0714 16.5087 16.1557C16.32 16.2365 16.106 16.277 15.8668 16.277Z" fill="#AE9A9A"/>
<path d="M19.1865 16.2264V15.4935H17.5589V14.9476C17.5893 14.8937 17.628 14.828 17.6752 14.7505C17.7257 14.673 17.7847 14.5837 17.8521 14.4826L18.9388 12.8904H19.9548V14.8971H20.4653V15.4935H19.9548V16.2264H19.1865ZM18.2565 14.8971H19.1966V13.8861C19.1966 13.8188 19.1983 13.7497 19.2017 13.6789C19.2051 13.6048 19.2084 13.5306 19.2118 13.4565H19.2017C19.168 13.5273 19.1276 13.6014 19.0804 13.6789C19.0366 13.753 18.9944 13.8204 18.954 13.8811L18.3626 14.7454C18.3458 14.7724 18.3289 14.7977 18.3121 14.8213C18.2952 14.8448 18.2767 14.8701 18.2565 14.8971Z" fill="#AE9A9A"/>
<path d="M25.3438 16.2264H24.4492L24.2167 15.4733H23.0743L22.8367 16.2264H21.9623L23.135 12.8904H24.1762L25.3438 16.2264ZM23.2361 14.8819H24.0549L23.6455 13.5323L23.2361 14.8819Z" fill="#AE9A9A"/>
<path d="M28.7646 16.2264H27.8699L27.6374 15.4733H26.4951L26.2575 16.2264H25.3831L26.5557 12.8904H27.597L28.7646 16.2264ZM26.6568 14.8819H27.4757L27.0662 13.5323L26.6568 14.8819Z" fill="#AE9A9A"/>
</g>
</g>
</g>
</svg>
